<?xml version="1.0" standalone="no"?>
<!DOCTYPE svg PUBLIC "-//W3C//DTD SVG 20010904//EN"
 "http://www.w3.org/TR/2001/REC-SVG-20010904/DTD/svg10.dtd">
<svg version="1.0" xmlns="http://www.w3.org/2000/svg"
 width="200.000000pt" height="200.000000pt" viewBox="0 0 200.000000 200.000000"
 preserveAspectRatio="xMidYMid meet">

<g transform="translate(0.000000,200.000000) scale(0.100000,-0.100000)"
fill="#000000" stroke="none">
<path d="M390 1005 l0 -604 383 2 382 1 -370 6 -369 5 157 161 157 161 0 272
0 271 168 2 c139 1 153 3 82 8 -47 3 -75 7 -64 8 16 2 22 9 22 28 -1 18 -5 24
-15 20 -8 -3 -11 -1 -8 4 3 6 11 10 17 10 6 0 59 19 117 41 58 23 135 53 171
66 36 13 74 28 85 33 28 12 139 54 213 80 34 13 62 24 62 26 0 2 -268 4 -595
4 l-595 0 0 -605z"/>
<path d="M1600 1560 c0 -11 -4 -28 -10 -38 -8 -15 -42 -103 -121 -312 -11 -30
-25 -64 -29 -75 -5 -11 -25 -63 -45 -115 -20 -52 -49 -131 -66 -175 -17 -44
-34 -89 -39 -100 -18 -42 -130 -342 -130 -348 0 -4 101 -7 225 -7 l225 0 0
595 c0 327 -2 595 -5 595 -3 0 -5 -9 -5 -20z"/>
</g>
</svg>
